<svg width="14" height="48" viewBox="0 0 14 48" fill="none" xmlns="http://www.w3.org/2000/svg">
<path d="M6.98612 22.6672C9.14619 22.394 10.1506 20.9392 11.0247 19.2657C11.1087 18.3491 11.2264 17.6428 11.3903 17.2139C13.6765 0.626801 14.8321 0.820215 6.42718 0.904307C0.463869 0.239982 0.896724 1.88818 0.951357 6.37447C2.25833 12.366 3.10303 17.2097 3.64515 21.2293C4.51926 22.1291 5.64973 22.8396 6.98612 22.6672Z" fill="#7987a1" />
<path opacity="0.1" d="M8.92336 3.20041C8.66281 5.06724 8.19213 7.4134 8.63339 8.45193C9.07885 9.49466 8.9738 6.55566 9.23435 4.92428C9.46969 3.44847 9.83111 2.41415 9.62939 0.917316C9.33942 0.904703 9.02843 0.896294 8.69223 0.89209C8.88974 1.44709 9.05784 2.24176 8.92336 3.20041Z" fill="#7987a1" />
<path opacity="0.1" d="M2.52271 4.10873C2.47228 6.84172 2.68661 6.68194 2.78327 5.87887C2.91355 4.78147 2.8463 4.06669 3.12367 2.72543C3.28337 1.96439 3.70783 1.33371 3.56914 0.787109C3.18671 0.816541 2.85892 0.871201 2.57735 0.951088C2.58155 1.53132 2.55633 2.41428 2.52271 4.10873Z" fill="#7987a1" />
<path d="M11.0241 19.2661C10.15 20.9395 9.14558 22.3901 6.98551 22.6676C5.64912 22.8358 4.51865 22.1294 3.64453 21.2297C5.67853 36.3073 3.48485 39.692 5.85924 47.8825C11.4948 46.5202 10.3517 26.4349 11.0241 19.2661Z" fill="#7987a1" />
</svg>
