<svg width="14" height="45" viewBox="0 0 14 45" fill="none" xmlns="http://www.w3.org/2000/svg">
<path d="M7.74182 15.5293C9.25892 15.0542 11.0492 14.6211 12.6503 13.6457C13.8606 8.19233 15.1592 1.54909 9.406 0.085898C9.02357 -0.0108074 7.14086 0.212034 6.67859 0.392831C-4.55045 4.74878 2.22395 10.816 4.06464 15.3864C5.23293 15.748 6.53571 15.9077 7.74182 15.5293Z" fill="#6571ff" />
<path d="M4.48098 17.3378C4.41795 22.85 5.43074 44.882 7.34287 44.9745C11.6 38.2136 11.5117 20.0624 11.9026 17.2243C12.0833 16.1521 12.3648 14.9328 12.6506 13.6504C11.0453 14.6259 9.2592 15.0589 7.74211 15.534C6.536 15.9125 5.23323 15.7485 4.06494 15.3911C4.3381 16.0764 4.5062 16.7281 4.48098 17.3378Z" fill="#6571ff" />
<path opacity="0.1" d="M5.86643 9.72758C6.05555 5.85516 5.38736 2.92036 4.83263 1.20068C3.97532 1.62955 3.2609 2.07103 2.67676 2.52092C3.78201 4.66526 4.73598 8.18029 5.02175 9.37019C5.37896 10.8292 5.86643 9.72758 5.86643 9.72758Z" fill="#6571ff" />
<path opacity="0.1" d="M11.6617 1.1708C11.2415 0.830232 10.7414 0.548527 10.1572 0.325684C10.6111 1.04467 11.3759 2.51627 11.4852 4.39152C11.6323 6.91847 12.4686 3.69776 11.6617 1.1708Z" fill="#6571ff" />
</svg>
