<svg width="14" height="47" viewBox="0 0 14 47" fill="none" xmlns="http://www.w3.org/2000/svg">
<path d="M11.0536 20.4819C11.1629 19.1743 11.3142 17.976 11.5453 16.9374C13.7978 4.22698 16.3319 1.62013 7.58655 0.842285C7.23355 0.922172 0.0304986 0.648874 1.0475 6.15688C2.24941 11.4883 3.0773 16.1218 3.64043 20.1497C4.55237 20.9738 5.75007 21.5541 7.326 21.533C8.95236 21.512 10.1501 21.1042 11.0536 20.4819Z" fill="#6571ff" fill-opacity="0.5"/>
<path opacity="0.1" d="M4.82848 2.20012C4.98398 4.13423 4.82849 4.17207 4.67299 5.5764C4.5175 6.98073 5.08904 8.12858 4.98397 8.64994C4.87891 9.17131 5.66058 8.75506 5.71101 7.71232C5.76144 6.66959 6.02199 4.89946 6.33718 4.06695C6.59353 3.3774 6.95914 1.55262 6.87089 0.879883C6.34137 0.913519 5.58493 0.984992 4.78225 1.16999C4.78225 1.43488 4.79066 1.76705 4.82848 2.20012Z" fill="#6571ff" fill-opacity="0.5"/>
<path opacity="0.1" d="M10.0066 6.30834C10.1873 6.98528 10.4478 8.2887 10.4478 8.2887C10.4478 8.2887 10.7084 7.38472 10.8134 6.66573C10.9185 5.94675 10.763 5.58095 11.074 4.28173C11.2841 3.41138 11.3261 2.30557 11.2589 1.48567C10.8807 1.35953 10.452 1.25022 9.96875 1.15771C10.2041 1.71693 10.452 2.41489 10.452 2.84376C10.4478 3.65525 9.82166 5.6314 10.0066 6.30834Z" fill="#6571ff" fill-opacity="0.5"/>
<path d="M5.34703 46.1087C11.4196 41.8243 10.3438 28.8951 11.054 20.4818C10.1505 21.104 8.95277 21.5119 7.33061 21.5371C5.75468 21.5581 4.55696 20.9779 3.64502 20.1538C6.28838 39.0366 3.13232 44.6371 5.34703 46.1087Z" fill="#6571ff" fill-opacity="0.5"/>
</svg>
