<svg width="18" height="35" viewBox="0 0 18 35" fill="none" xmlns="http://www.w3.org/2000/svg">
<path d="M15.1678 12.1102C15.6931 9.83553 16.9119 7.96449 17.1346 5.28617C17.2228 1.09841 13.697 -1.14264 10.3602 1.83C-3.76435 -1.28559 1.49715 6.598 3.58158 12.3919C5.77528 11.9715 9.39361 11.6813 15.1678 12.1102Z" fill="#6571ff" />
<path d="M4.04015 16.5754C2.02295 22.7772 -2.22995 39.9697 2.99373 31.0224C5.17061 26.246 6.04052 19.6406 8.58302 17.3659C12.1341 15.642 10.2934 27.9909 10.3817 30.8374C9.19238 37.9221 13.0755 34.323 14.4329 28.8402C15.7188 23.8241 14.7565 17.8746 14.9288 14.3133C14.9162 13.5229 15.0086 12.7997 15.1683 12.1143C9.3941 11.6855 5.77577 11.9756 3.57787 12.3918C4.17883 14.0653 4.51503 15.5663 4.04015 16.5754Z" fill="#6571ff" />
<path opacity="0.1" d="M2.96956 1.95227C2.57873 2.7091 2.44845 2.92353 2.68379 5.16458C2.74262 5.71538 2.76364 5.71118 2.93594 5.71539C3.24692 5.71959 2.8729 5.07208 3.15446 4.28162C3.49066 3.32297 4.50346 1.97329 6.12142 1.85977C8.33193 1.7042 9.24386 2.22557 9.50442 3.13377C9.76497 4.04616 10.1012 4.69367 9.68513 5.47572C9.26908 6.25777 8.61769 7.35097 9.76497 7.40142C10.908 7.45188 12.2108 7.55699 11.7443 6.8296C11.2779 6.10221 10.8072 6.25777 10.6013 5.05946C10.3911 3.86116 9.79439 2.9782 10.7063 2.2466C11.114 1.91864 11.3913 1.64954 11.6603 1.43091C11.8452 1.28374 12.526 0.796013 13.2362 0.787603C13.9969 0.779194 14.4255 0.758172 15.3123 1.04408C14.228 0.299871 12.7866 0.232596 11.3073 1.12817V1.13238C11.156 1.22067 11.0089 1.32159 10.8576 1.43091C10.8366 1.44352 10.8198 1.46033 10.7988 1.47295C10.7399 1.51499 10.6853 1.55704 10.6307 1.60329C10.5424 1.67477 10.4542 1.74625 10.3659 1.82614C10.1684 1.78409 9.9793 1.74204 9.79019 1.7042C9.73976 1.69579 9.68933 1.68318 9.6389 1.67477C9.4708 1.64114 9.3069 1.60749 9.143 1.57806C9.12199 1.57386 9.10098 1.56965 9.08417 1.56545C8.91187 1.53181 8.73956 1.50238 8.57146 1.47295C8.52103 1.46454 8.4664 1.45613 8.41597 1.44772C8.2857 1.4267 8.15542 1.40568 8.02514 1.38465C7.98732 1.38045 7.9453 1.37204 7.90747 1.36783C7.75619 1.34681 7.6091 1.32579 7.46621 1.30477C7.40738 1.29636 7.35275 1.28795 7.29811 1.28374C7.19725 1.27113 7.1006 1.25852 6.99974 1.2459C6.9451 1.2417 6.89047 1.23329 6.84004 1.22908C6.71397 1.21647 6.58789 1.20385 6.46182 1.19124C6.39878 1.18704 6.33995 1.18283 6.27691 1.17443C6.20126 1.17022 6.12982 1.16181 6.05838 1.1576C5.99534 1.1534 5.93231 1.14919 5.87347 1.14499C5.76421 1.14079 5.65915 1.13238 5.55409 1.13238C5.49105 1.12817 5.42801 1.12817 5.36497 1.12817C5.31034 1.12817 5.25571 1.12817 5.20107 1.12397C5.13804 1.12397 5.075 1.12397 5.01196 1.12397C4.91951 1.12397 4.83126 1.12397 4.74721 1.12817C4.743 1.12817 4.74301 1.12817 4.7388 1.12817C4.63374 1.13658 3.2091 1.48556 2.96956 1.95227Z" fill="#6571ff" />
<path opacity="0.5" d="M11.2446 16.4109C10.5176 15.4228 8.43314 16.6211 7.07994 18.3366C5.72674 20.0521 4.42397 26.3043 3.64651 29.1676C3.19264 30.8369 1.86886 32.4682 0.847656 33.5446C1.21747 33.6329 1.89408 32.9097 2.99513 31.0261C5.17201 26.2497 6.04192 19.6442 8.58443 17.3695C12.1355 15.6457 10.2948 27.9946 10.3831 30.8411C9.90401 33.6918 10.2486 34.8144 10.9168 34.7766C11.9422 32.6827 11.8666 30.3365 12.2322 27.6582C12.6482 24.6351 11.9716 17.399 11.2446 16.4109Z" fill="#6571ff" />
</svg>
