<svg width="18" height="30" viewBox="0 0 18 30" fill="none" xmlns="http://www.w3.org/2000/svg">
<path d="M12.1764 10.9001C8.77661 11.2281 8.56648 11.7537 5.58273 10.9001C3.96057 10.4376 2.83431 10.2989 1.93077 10.3998C-0.313347 3.79016 0.535551 -2.80684 9.33553 1.39775C19.8795 -2.32752 17.2068 5.0179 15.6056 10.9212C14.6643 10.8202 13.496 10.774 12.1764 10.9001Z" fill="#6571ff"/>
<path opacity="0.1" d="M12.6267 1.09078C13.3538 1.34726 13.3286 2.00317 13.5639 2.44465C13.7992 2.88613 13.8917 3.11318 14.3372 3.34864C14.7784 3.5841 15.2239 3.82796 15.2239 3.93728C15.2239 4.06762 15.0684 4.12648 14.7658 4.0508C14.7658 4.0508 13.8917 3.87 13.5009 3.32341C13.11 2.77681 13.0932 1.64999 11.9501 1.62056C10.8071 1.59533 10.0338 1.74249 9.56312 2.36476C9.09664 2.99124 8.96637 3.69341 8.99159 4.10967C9.0168 4.52592 9.3572 5.02205 9.79846 5.22808C10.2397 5.43831 10.2944 5.7999 9.74803 5.66956C9.20171 5.53922 8.47467 5.93025 8.10905 5.30376C7.74343 4.67728 7.79807 4.69831 7.74343 3.72705C7.693 2.75579 7.92415 2.0242 7.1719 1.50283C6.41545 0.981462 5.48249 0.59043 4.77647 0.905774C4.07466 1.21691 3.70905 1.12442 3.86454 0.792255C3.93598 0.636685 4.00324 0.392816 4.24698 0.262474C4.42769 0.165768 4.94039 0.0690662 5.00343 0.08168C6.16331 0.148953 7.59216 0.556795 9.3404 1.39351C9.78587 1.23794 11.8114 0.804865 12.6267 1.09078Z" fill="#6571ff"/>
<path d="M15.0301 16.358C17.0179 31.5533 16.9506 32.8988 10.7898 19.2213C6.38137 12.6159 12.8532 29.2198 11.0629 29.7117C4.93993 26.3481 3.10344 19.0363 2.83028 12.6958C2.48987 11.939 2.18731 11.1695 1.92676 10.3959C2.83029 10.295 3.96076 10.4337 5.57871 10.8962C8.56247 11.7497 8.7726 11.2242 12.1724 10.8962C13.4878 10.7701 14.6603 10.8163 15.6016 10.9172C14.9923 13.1751 14.5384 15.2185 15.0301 16.358Z" fill="#6571ff"/>
<path opacity="0.5" d="M10.6486 26.8817C8.60203 25.0065 7.42112 20.7725 6.83277 19.0023C6.24443 17.2322 7.15216 13.5742 8.61883 13.8475C9.86697 14.083 11.7581 19.6961 12.8675 22.5426C13.7122 24.708 15.1579 27.4704 15.8009 28.6729C15.1453 28.5804 13.603 25.469 10.7873 19.2252C7.34126 14.0619 10.5436 23.0766 11.2496 27.4956C11.0647 27.2812 10.863 27.0752 10.6486 26.8817Z" fill="#6571ff"/>
</svg>
