<svg width="14" height="41" viewBox="0 0 14 41" fill="none" xmlns="http://www.w3.org/2000/svg">
<path d="M3.12405 12.7333C2.5315 10.9758 1.6784 9.19726 0.451282 7.35985C-0.704398 3.61357 4.49406 0.321376 6.54487 0.725017C18.585 3.55891 11.8778 8.20077 11.0289 12.4348C9.13779 13.3093 6.35575 13.9611 3.12405 12.7333Z" fill="#6571ff" />
<path d="M6.30629 40.3741C2.73837 29.1983 5.98269 21.2264 3.125 12.7331C6.36092 13.9566 9.13876 13.3091 11.0299 12.4346C11.0047 12.5523 10.9879 12.6742 10.9711 12.792C10.1642 19.965 10.576 40.6137 6.30629 40.3741Z" fill="#6571ff" />
<path opacity="0.1" d="M10.0831 5.72027C10.2554 6.59903 9.87296 6.22902 9.87296 6.22902C8.9232 5.05173 8.72149 2.88637 8.71729 1.32227C9.05768 1.43158 9.37708 1.5409 9.67545 1.65443C9.64184 3.23955 9.9486 5.05594 10.0831 5.72027Z" fill="#6571ff" />
<path opacity="0.1" d="M4.56793 5.42964C4.29057 6.92227 4.29058 5.41702 3.73584 3.87814C3.47529 3.15075 3.13489 2.51586 2.84912 2.04494C3.16851 1.80949 3.5005 1.59925 3.83249 1.41846C4.22333 2.60836 4.74864 4.46258 4.56793 5.42964Z" fill="#6571ff" />
</svg>
