<svg width="13" height="48" viewBox="0 0 13 48" fill="none" xmlns="http://www.w3.org/2000/svg">
<path d="M6.14636 22.6672C3.98628 22.394 2.98189 20.9392 2.10777 19.2657C2.02372 18.3491 1.90606 17.6428 1.74636 17.2139C-0.539783 0.626801 -1.69547 0.820215 6.70949 0.904307C12.6728 0.239982 12.2399 1.88818 12.1853 6.37447C10.8783 12.366 10.0336 17.2097 9.49152 21.2293C8.61321 22.1291 7.48274 22.8396 6.14636 22.6672Z" fill="#6571ff" fill-opacity="0.5"/>
<path opacity="0.1" d="M4.20934 3.20041C4.46989 5.06724 4.94057 7.4134 4.49931 8.45193C4.05385 9.49466 4.15892 6.55566 3.89836 4.92428C3.66303 3.44847 3.30162 2.41415 3.50333 0.917316C3.7933 0.904703 4.10429 0.896294 4.44048 0.89209C4.24297 1.44709 4.07486 2.24176 4.20934 3.20041Z" fill="#6571ff" fill-opacity="0.5"/>
<path opacity="0.1" d="M10.61 4.10873C10.6604 6.84172 10.4461 6.68194 10.3494 5.87887C10.2192 4.78147 10.2864 4.06669 10.009 2.72543C9.84934 1.96439 9.42487 1.33371 9.56355 0.787109C9.94599 0.816541 10.2738 0.871201 10.5554 0.951088C10.5512 1.53132 10.5764 2.41428 10.61 4.10873Z" fill="#6571ff" fill-opacity="0.5"/>
<path d="M2.1084 19.2661C2.98251 20.9395 3.98691 22.3901 6.14699 22.6676C7.48337 22.8358 8.61383 22.1294 9.48795 21.2297C7.45395 36.3073 9.64765 39.692 7.27325 47.8825C1.63772 46.5202 2.78079 26.4349 2.1084 19.2661Z" fill="#6571ff" fill-opacity="0.5"/>
</svg>
