<svg width="14" height="41" viewBox="0 0 14 41" fill="none" xmlns="http://www.w3.org/2000/svg">
<path d="M11.0079 12.7333C11.6005 10.9758 12.4536 9.19726 13.6807 7.35985C14.8364 3.61357 9.63794 0.321376 7.58713 0.725017C-4.45298 3.55891 2.25418 8.20077 3.10308 12.4348C4.9942 13.3093 7.77204 13.9611 11.0079 12.7333Z" fill="#7987a1" />
<path d="M7.82612 40.3741C11.394 29.1983 8.14972 21.2264 11.0074 12.7331C7.77149 13.9566 4.99366 13.3091 3.10254 12.4346C3.12775 12.5523 3.14456 12.6742 3.16137 12.792C3.96825 19.965 3.5564 40.6137 7.82612 40.3741Z" fill="#7987a1" />
<path opacity="0.1" d="M4.04851 5.71978C3.87621 6.59854 4.25864 6.22853 4.25864 6.22853C5.2084 5.05125 5.41012 2.88588 5.41432 1.32178C5.07392 1.4311 4.75453 1.54041 4.45615 1.65394C4.48977 3.23907 4.18299 5.05545 4.04851 5.71978Z" fill="#7987a1" />
<path opacity="0.1" d="M9.56647 5.42964C9.84384 6.92227 9.84384 5.41702 10.3986 3.87814C10.6591 3.15075 10.9995 2.51586 11.2853 2.04494C10.9659 1.80949 10.6339 1.59925 10.3019 1.41846C9.91108 2.60836 9.38577 4.46258 9.56647 5.42964Z" fill="#7987a1" />
</svg>
