<svg width="14" height="45" viewBox="0 0 14 45" fill="none" xmlns="http://www.w3.org/2000/svg">
<path d="M6.3918 15.5293C4.87471 15.0542 3.08445 14.6211 1.4833 13.6457C0.272989 8.19233 -1.02559 1.54909 4.72761 0.085898C5.11004 -0.0108074 6.99277 0.212034 7.45504 0.392831C18.6841 4.74878 11.9097 10.816 10.069 15.3864C8.90069 15.748 7.59791 15.9077 6.3918 15.5293Z" fill="#7987a1" />
<path d="M9.65206 17.3373C9.7151 22.8495 8.7023 44.8816 6.79017 44.9741C2.53305 38.2131 2.62128 20.0619 2.23045 17.2238C2.04974 16.1516 1.76819 14.9323 1.48242 13.6499C3.08777 14.6254 4.87803 15.0584 6.39092 15.5336C7.59704 15.912 8.89981 15.748 10.0681 15.3906C9.79494 16.0759 9.62684 16.7277 9.65206 17.3373Z" fill="#7987a1" />
<path opacity="0.1" d="M8.26564 9.72709C8.07653 5.85467 8.74471 2.91987 9.29943 1.2002C10.1567 1.62906 10.8712 2.07054 11.4553 2.52043C10.3501 4.66477 9.39608 8.1798 9.11032 9.3697C8.75311 10.8287 8.26564 9.72709 8.26564 9.72709Z" fill="#7987a1" />
<path opacity="0.1" d="M2.47176 1.17031C2.89201 0.829743 3.39211 0.548038 3.97626 0.325195C3.52239 1.04418 2.75755 2.51578 2.64828 4.39103C2.5012 6.91799 1.66488 3.69727 2.47176 1.17031Z" fill="#7987a1" />
</svg>
