<svg width="15" height="41" viewBox="0 0 15 41" fill="none" xmlns="http://www.w3.org/2000/svg">
<path d="M11.6936 25.0982C10.1891 16.2938 11.1767 6.08082 4.97379 0.555993C2.90617 -0.104127 3.33482 2.32612 3.65001 3.87762C5.20913 10.3569 3.4693 19.9938 2.75488 25.5607C3.65421 24.7954 4.92336 24.1774 6.70941 24.0176C8.65516 23.8536 10.3319 24.3624 11.6936 25.0982Z" fill="#6571ff" />
<path d="M0.522706 36.0555C8.74696 47.2271 16.3072 34.9581 14.1135 32.7213C12.8696 30.4382 12.1594 27.8356 11.6929 25.0984C10.3313 24.3626 8.6503 23.8538 6.70876 24.022C4.9185 24.1776 3.65356 24.7956 2.75423 25.5651C2.66598 26.2504 2.59033 26.8769 2.5441 27.4277C2.18269 30.8082 -0.452269 32.9568 0.522706 36.0555Z" fill="#6571ff" />
<path opacity="0.1" d="M10.8984 32.5739C10.9194 32.1829 10.8227 32.0483 10.7219 32.3763C10.6252 32.6832 10.4361 33.2046 10.4361 33.4821C10.4277 34.9537 10.5034 37.0224 11.306 39.3559C11.4825 39.2214 11.6506 39.0826 11.8145 38.9355C10.8059 36.9088 10.8311 33.8731 10.8984 32.5739Z" fill="#6571ff" />
<path opacity="0.1" d="M5.13356 35.8578C5.2092 35.1556 5.15877 33.7387 5.01169 32.965C4.95285 32.6497 4.88561 32.5782 4.8604 32.8179C4.81417 33.2173 4.75533 33.9026 4.75533 34.7099C4.75533 36.0007 4.82678 36.808 4.61665 38.3217C4.54101 38.8556 4.42754 39.3223 4.30566 39.705C4.47376 39.8059 4.64186 39.8942 4.80576 39.9783C4.8646 39.7764 4.91503 39.562 4.94444 39.3518C5.05371 38.5487 5.02849 36.85 5.13356 35.8578Z" fill="#6571ff" />
</svg>
