<svg width="16" height="44" viewBox="0 0 16 44" fill="none" xmlns="http://www.w3.org/2000/svg">
<path d="M12.2988 28.774C11.3784 20.7643 10.0084 3.77773 5.37728 0.531786C2.90201 -0.052652 3.70889 28.5469 3.7257 29.0095C3.7257 29.0221 3.7257 29.0221 3.7257 29.0095C3.70889 29.1945 3.68788 29.3837 3.65846 29.5687C4.71329 28.9001 6.11271 28.3956 7.945 28.3241C9.78569 28.2484 11.1977 28.4334 12.2988 28.774Z" fill="#6571ff" fill-opacity="0.5"/>
<path d="M2.76665 41.5932C7.46502 46.2351 13.2098 42.4342 15.5422 40.0333C16.8576 36.2366 13.1762 33.4363 12.3903 29.5849C12.3609 29.3285 12.3273 29.0552 12.2937 28.7735C11.1926 28.4329 9.78479 28.2521 7.9399 28.3236C6.10762 28.395 4.70819 28.9038 3.65337 29.5681C2.90533 34.189 -2.12924 38.1245 2.76665 41.5932Z" fill="#6571ff" fill-opacity="0.5"/>
<path opacity="0.1" d="M12.2262 35.5812C12.0833 35.2911 11.974 35.0556 11.8984 34.8622C11.7093 34.3955 11.6336 34.4376 11.6252 34.7991C11.6168 35.1607 11.642 35.6443 11.7849 36.1362C12.0287 36.9645 12.4909 40.0633 11.4697 42.9224C11.8017 42.771 12.1211 42.6071 12.4321 42.4305C13.1339 38.7767 12.68 36.4936 12.2262 35.5812Z" fill="#6571ff" fill-opacity="0.5"/>
<path opacity="0.1" d="M4.3292 36.3376C4.37963 35.976 4.27036 35.7741 4.11067 36.1357C4.02662 36.3207 3.94257 36.5982 3.87113 37.0145C3.70303 37.9942 3.29119 40.5926 4.14429 42.7075C4.55193 42.9682 4.96377 43.1742 5.37981 43.3382C3.85011 41.2821 4.14429 37.7209 4.3292 36.3376Z" fill="#6571ff" fill-opacity="0.5"/>
</svg>
