<svg width="15" height="42" viewBox="0 0 15 42" fill="none" xmlns="http://www.w3.org/2000/svg">
<path d="M2.85205 25.2521C4.20105 19.908 3.52866 0.125448 10.53 0.894887C11.5008 2.7407 8.76073 2.7407 9.86178 20.236C9.67267 22.0902 10.1686 23.915 10.8788 25.7272C8.99609 24.4364 6.29808 23.6291 2.85205 25.2521Z" fill="#6571ff" />
<path d="M13.0224 38.8161C12.3332 41.3472 6.66403 41.0361 2.52037 41.0151C-1.63169 40.6198 0.473759 31.1301 2.49516 26.2191C2.62964 25.9963 2.7431 25.6641 2.84817 25.2563C6.29421 23.6333 8.99642 24.4406 10.8791 25.7314C12.6064 30.1378 15.5985 34.4559 13.0224 38.8161Z" fill="#6571ff" />
<path opacity="0.1" d="M3.19197 34.048C2.93141 31.5211 3.71308 28.7124 3.71308 28.7124C3.71308 28.7124 3.50295 31.8574 3.71308 33.1482C3.90219 34.3297 4.35607 38.1895 3.71308 41.0234C3.30543 41.0192 2.90618 41.015 2.52375 41.0108C2.51534 41.0108 2.50694 41.0066 2.49854 41.0066C2.85155 39.7242 3.4189 36.2596 3.19197 34.048Z" fill="#6571ff" />
<path opacity="0.1" d="M10.0093 33.001C10.0093 33.001 10.3581 35.0822 10.3413 37.0122C10.3329 38.0885 10.5767 39.5097 10.7952 40.5524C10.4968 40.6365 10.1774 40.7038 9.84124 40.7626C9.74038 40.2707 9.64791 39.6821 9.59748 39.0051C9.42098 36.7809 10.0093 33.001 10.0093 33.001Z" fill="#6571ff" />
</svg>
