<svg width="18" height="33" viewBox="0 0 18 33" fill="none" xmlns="http://www.w3.org/2000/svg">
<path d="M9.76413 19.9101C6.37273 20.2927 3.91427 20.6207 2.14923 21.2976C2.35515 19.5611 2.17023 16.9374 1.06077 12.119C0.674145 9.85271 0.804424 8.84781 1.43059 7.38882C3.09898 5.04266 8.75974 -6.76802 5.82641 6.13165C5.49861 7.63268 6.21723 7.95223 6.57864 7.26688C7.04932 3.40707 8.93205 -4.51437 12.0293 4.59277C12.5252 4.30686 12.6512 -2.10093 15.0298 2.07422C16.4587 7.04825 12.4958 12.2157 13.7607 17.7111C13.5212 18.4006 13.8195 19.271 14.3322 20.2422C13.1471 19.8891 11.63 19.6998 9.76413 19.9101Z" fill="#6571ff" fill-opacity="0.5"/>
<path d="M16.9713 28.1764C14.475 32.053 13.4791 31.2373 9.37743 30.4553C5.41449 30.2072 2.2458 36.0978 0.241211 28.6893C0.350476 24.6277 1.80035 24.1988 2.14916 21.2935C3.9142 20.6207 6.37265 20.2886 9.76406 19.9059C11.6258 19.6957 13.1471 19.8849 14.3406 20.2297C15.6433 22.6936 18.3161 25.7882 16.9713 28.1764Z" fill="#6571ff" fill-opacity="0.5"/>
<path opacity="0.1" d="M8.58245 26.4689C7.95628 24.766 4.76659 24.8712 4.14042 24.8712C3.51426 24.8712 2.85868 25.0814 3.30834 24.6988C3.75801 24.3161 6.49801 24.211 7.36793 24.6651C8.23364 25.115 9.09094 25.3168 9.62045 24.6651C10.5618 23.5047 11.831 23.2356 12.3226 23.1977C12.4487 23.1893 12.5412 23.2986 12.5328 23.3365C12.4991 23.4626 12.3605 23.5173 12.3605 23.5173C12.3605 23.5173 10.0449 23.9335 9.83478 25.8088C9.62466 27.684 9.46075 28.6048 9.77594 29.4457C9.91462 29.8157 10.1836 30.3035 10.6585 30.7155C10.2676 30.6314 9.84318 30.5431 9.38091 30.4548C8.93965 30.4254 8.51102 30.4759 8.09077 30.5726C9.07835 29.2187 9.1666 28.054 8.58245 26.4689Z" fill="#6571ff" fill-opacity="0.5"/>
<path opacity="0.5" d="M12.3317 5.74942C11.1508 8.10819 8.48219 11.7199 8.41075 13.1074C8.33931 14.495 8.44857 16.0254 8.09977 15.9918C7.75096 15.9539 7.68372 13.5952 6.81381 13.0065C5.9481 12.4179 5.05719 10.2904 5.78001 7.15375V7.14955C5.89768 7.72978 6.32633 7.7508 6.58268 7.26727C7.05336 3.40746 8.93606 -4.51398 12.0333 4.59316C12.2686 4.45861 12.4199 2.96178 12.7645 1.85597C12.9579 2.58337 13.168 4.0802 12.3317 5.74942Z" fill="#6571ff" fill-opacity="0.5"/>
</svg>
