<svg width="15" height="41" viewBox="0 0 15 41" fill="none" xmlns="http://www.w3.org/2000/svg">
<path d="M3.44189 25.0982C4.94638 16.2938 3.9588 6.08082 10.1617 0.555993C12.2293 -0.104127 11.8006 2.32612 11.4855 3.87762C9.92634 10.3569 11.6662 19.9938 12.3806 25.5607C11.4813 24.7954 10.2121 24.1774 8.42604 24.0176C6.48028 23.8536 4.8035 24.3624 3.44189 25.0982Z" fill="#6571ff" />
<path d="M14.6122 36.0555C6.38789 47.2271 -1.1724 34.9581 1.0213 32.7213C2.26523 30.4382 2.97546 27.8356 3.44193 25.0984C4.80354 24.3626 6.48453 23.8538 8.42608 24.022C10.2163 24.1776 11.4813 24.7956 12.3806 25.5651C12.4689 26.2504 12.5445 26.8769 12.5908 27.4277C12.9522 30.8082 15.5871 32.9568 14.6122 36.0555Z" fill="#6571ff" />
<path opacity="0.1" d="M4.23596 32.5739C4.21495 32.1829 4.3116 32.0483 4.41246 32.3763C4.50912 32.6832 4.69822 33.2046 4.69822 33.4821C4.70663 34.9537 4.63098 37.0224 3.82831 39.3559C3.6518 39.2214 3.48372 39.0826 3.31982 38.9355C4.32842 36.9088 4.3032 33.8731 4.23596 32.5739Z" fill="#6571ff" />
<path opacity="0.1" d="M10.0022 35.8578C9.92652 35.1556 9.97696 33.7387 10.124 32.965C10.1829 32.6497 10.2501 32.5782 10.2753 32.8179C10.3216 33.2173 10.3804 33.9026 10.3804 34.7099C10.3804 36.0007 10.309 36.808 10.5191 38.3217C10.5947 38.8556 10.7082 39.3223 10.8301 39.705C10.662 39.8059 10.4939 39.8942 10.33 39.9783C10.2711 39.7764 10.2207 39.562 10.1913 39.3518C10.082 38.5487 10.1072 36.85 10.0022 35.8578Z" fill="#6571ff" />
</svg>
