<svg width="14" height="47" viewBox="0 0 14 47" fill="none" xmlns="http://www.w3.org/2000/svg">
<path d="M3.07758 20.4819C2.96832 19.1743 2.81702 17.976 2.58589 16.9374C0.333364 4.22698 -2.20072 1.62013 6.54462 0.842285C6.89763 0.922172 14.1007 0.648874 13.0837 6.15688C11.8818 11.4883 11.0539 16.1218 10.4907 20.1497C9.57881 20.9738 8.3811 21.5541 6.80517 21.533C5.17882 21.512 3.98111 21.1042 3.07758 20.4819Z" fill="#6571ff" fill-opacity="0.5"/>
<path opacity="0.1" d="M9.30046 2.20012C9.14497 4.13423 9.30046 4.17207 9.45595 5.5764C9.61144 6.98073 9.03991 8.12858 9.14497 8.64994C9.25004 9.17131 8.46836 8.75506 8.41793 7.71232C8.3675 6.66959 8.10695 4.89946 7.79177 4.06695C7.53542 3.3774 7.16982 1.55262 7.25807 0.879883C7.78758 0.913519 8.54401 0.984992 9.34668 1.16999C9.34668 1.43488 9.33829 1.76705 9.30046 2.20012Z" fill="#6571ff" fill-opacity="0.5"/>
<path opacity="0.1" d="M4.12267 6.30834C3.94196 6.98528 3.6814 8.2887 3.6814 8.2887C3.6814 8.2887 3.42085 7.38472 3.31579 6.66573C3.21072 5.94675 3.36622 5.58095 3.05523 4.28173C2.84511 3.41138 2.80308 2.30557 2.87032 1.48567C3.24855 1.35953 3.67721 1.25022 4.16049 1.15771C3.92515 1.71693 3.67721 2.41489 3.67721 2.84376C3.68141 3.65525 4.30758 5.6314 4.12267 6.30834Z" fill="#6571ff" fill-opacity="0.5"/>
<path d="M8.78264 46.1087C2.71005 41.8243 3.7859 28.8951 3.07568 20.4818C3.97922 21.104 5.17692 21.5119 6.79908 21.5371C8.37501 21.5581 9.57273 20.9779 10.4847 20.1538C7.84131 39.0366 10.9974 44.6371 8.78264 46.1087Z" fill="#6571ff" fill-opacity="0.5"/>
</svg>
