<svg width="17" height="28" viewBox="0 0 17 28" fill="none" xmlns="http://www.w3.org/2000/svg">
<path d="M16.5892 9.9752C17.5053 4.00889 16.7699 -1.38981 11.0797 0.636804C10.878 0.708282 10.2938 1.08249 10.0039 1.30534C9.51218 1.68375 8.63806 2.10421 7.53281 1.61227C-2.22956 -0.885254 -0.208164 4.95912 2.2671 11.3081C2.96051 10.7026 4.3095 10.0467 6.96127 9.90792C10.9494 9.69349 14.4081 9.65565 16.5892 9.9752Z" fill="#6571ff" fill-opacity="0.5"/>
<path d="M4.01972 22.9462C2.82201 26.4276 4.35591 26.478 6.62525 23.1144C8.72229 20.188 8.83996 19.9904 8.78533 21.3484C2.53204 33.1255 11.4455 24.75 13.572 20.537C14.6688 18.0689 15.9884 13.8937 16.5935 9.97085C14.4167 9.6513 10.958 9.68914 6.96566 9.90357C4.31809 10.0465 2.96489 10.6982 2.27148 11.3037C4.06594 15.9287 6.10415 20.8103 4.01972 22.9462Z" fill="#6571ff" fill-opacity="0.5"/>
<path opacity="0.5" d="M9.35714 13.7425C8.15944 14.2092 8.47042 18.3255 8.10901 20.4067C8.02916 20.865 7.78121 21.4074 7.44922 21.9751C8.75619 20.1671 8.83604 20.2007 8.78561 21.3528C8.67634 21.5546 8.57548 21.748 8.47883 21.9414C8.75619 21.4789 9.04616 20.987 9.35714 20.4614C12.0089 15.9835 10.5506 13.2758 9.35714 13.7425Z" fill="#6571ff" fill-opacity="0.5"/>
<path opacity="0.1" d="M7.87373 2.44462C7.69302 2.91133 7.27697 3.0711 6.15491 2.68008C5.03705 2.28905 5.73887 2.83565 6.52053 3.22667C7.30219 3.6177 7.84851 4.50066 8.36962 4.50066C8.89073 4.50066 9.77325 4.10963 10.3742 3.61349C10.971 3.11735 11.3366 2.65065 11.2315 2.44042C11.1264 2.23019 10.3994 2.57076 9.90352 2.58337C9.50849 2.59178 9.06723 2.28064 9.21852 1.71723C8.80668 1.85178 8.30238 1.88962 7.73084 1.68359C7.86112 1.98212 7.94097 2.27223 7.87373 2.44462Z" fill="#6571ff" fill-opacity="0.5"/>
</svg>
