<svg width="17" height="30" viewBox="0 0 17 30" fill="none" xmlns="http://www.w3.org/2000/svg">
<path d="M4.95621 10.9001C8.35601 11.2281 8.56614 11.7537 11.5499 10.9001C13.1721 10.4376 14.2983 10.2989 15.2019 10.3998C17.446 3.79016 16.5971 -2.80684 7.79709 1.39775C-2.74694 -2.32752 -0.074163 5.0179 1.52698 10.9212C2.46834 10.8202 3.63663 10.774 4.95621 10.9001Z" fill="#6571ff" />
<path opacity="0.1" d="M4.50826 1.09078C3.78124 1.34726 3.80645 2.00317 3.57111 2.44465C3.33577 2.88613 3.24332 3.11318 2.79786 3.34864C2.35659 3.5841 1.91113 3.82796 1.91113 3.93728C1.91113 4.06762 2.06662 4.12648 2.3692 4.0508C2.3692 4.0508 3.24332 3.87 3.63415 3.32341C4.02498 2.77681 4.04179 1.64999 5.18486 1.62056C6.32794 1.59533 7.1012 1.74249 7.57187 2.36476C8.03835 2.99124 8.16863 3.69341 8.14341 4.10967C8.1182 4.52592 7.7778 5.02205 7.33654 5.22808C6.89528 5.43831 6.84064 5.7999 7.38697 5.66956C7.93329 5.53922 8.66032 5.93025 9.02593 5.30376C9.39155 4.67728 9.33692 4.69831 9.39155 3.72705C9.44198 2.75579 9.21084 2.0242 9.96309 1.50283C10.7195 0.981462 11.6525 0.59043 12.3585 0.905774C13.0645 1.22112 13.4259 1.12442 13.2704 0.792255C13.199 0.636685 13.1318 0.392816 12.888 0.262474C12.7073 0.165768 12.1946 0.0690662 12.1316 0.08168C10.9717 0.148953 9.54284 0.556795 7.7946 1.39351C7.34914 1.23794 5.32355 0.804865 4.50826 1.09078Z" fill="#6571ff" />
<path d="M2.10377 16.358C0.115994 31.5533 0.183234 32.8988 6.34407 19.2213C10.7525 12.6159 4.28065 29.2198 6.07091 29.7117C12.1939 26.3481 14.0304 19.0363 14.3036 12.6958C14.644 11.939 14.9466 11.1695 15.2071 10.3959C14.3036 10.295 13.1731 10.4337 11.5551 10.8962C8.57139 11.7497 8.36126 11.2242 4.96145 10.8962C3.64608 10.7701 2.47359 10.8163 1.53223 10.9172C2.14159 13.1751 2.59546 15.2185 2.10377 16.358Z" fill="#6571ff" />
<path opacity="0.5" d="M6.48135 26.8817C8.52795 25.0065 9.70885 20.7725 10.2972 19.0023C10.8855 17.2322 9.97781 13.5742 8.51115 13.8475C7.26301 14.083 5.37189 19.6961 4.26244 22.5426C3.41774 24.708 1.97208 27.4704 1.3291 28.6729C1.98469 28.5804 3.527 25.469 6.34266 19.2252C9.7887 14.0619 6.58641 23.0766 5.88039 27.4956C6.0653 27.2812 6.26702 27.0752 6.48135 26.8817Z" fill="#6571ff" />
</svg>
