<svg width="17" height="28" viewBox="0 0 17 28" fill="none" xmlns="http://www.w3.org/2000/svg">
<path d="M0.544792 9.9752C-0.371349 4.00889 0.364079 -1.38981 6.05424 0.636804C6.25596 0.708282 6.8401 1.08249 7.13007 1.30534C7.62177 1.68375 8.49588 2.10421 9.60114 1.61227C19.3635 -0.885254 17.3421 4.95912 14.8668 11.3081C14.1734 10.7026 12.8244 10.0467 10.1727 9.90792C6.18451 9.69349 2.72588 9.65565 0.544792 9.9752Z" fill="#7987a1"/>
<path d="M13.1139 22.9462C14.3116 26.4276 12.7777 26.478 10.5083 23.1144C8.41128 20.188 8.29363 19.9904 8.34826 21.3484C14.6016 33.1255 5.68808 24.75 3.56163 20.537C2.46478 18.0689 1.1452 13.8937 0.540039 9.97085C2.71693 9.6513 6.17556 9.68914 10.1679 9.90357C12.8155 10.0465 14.1687 10.6982 14.8621 11.3037C13.0677 15.9287 11.0294 20.8103 13.1139 22.9462Z" fill="#7987a1"/>
<path opacity="0.5" d="M7.77917 13.7425C8.97688 14.2092 8.66591 18.3255 9.02732 20.4067C9.10717 20.865 9.35512 21.4074 9.68711 21.9751C8.38014 20.1671 8.3003 20.2007 8.35073 21.3528C8.45999 21.5546 8.56084 21.748 8.6575 21.9414C8.38014 21.4789 8.09015 20.987 7.77917 20.4614C5.1274 15.9835 6.58566 13.2758 7.77917 13.7425Z" fill="#7987a1"/>
<path opacity="0.1" d="M9.26243 2.44462C9.44314 2.91133 9.85917 3.0711 10.9812 2.68008C12.0991 2.28905 11.3973 2.83565 10.6156 3.22667C9.83396 3.6177 9.28765 4.50066 8.76654 4.50066C8.24544 4.50066 7.36291 4.10963 6.76195 3.61349C6.1652 3.11735 5.79959 2.65065 5.90466 2.44042C6.00972 2.23019 6.73674 2.57076 7.23263 2.58337C7.62766 2.59178 8.06892 2.28064 7.91763 1.71723C8.32948 1.85178 8.83377 1.88962 9.4053 1.68359C9.27503 1.98212 9.19519 2.27223 9.26243 2.44462Z" fill="#7987a1"/>
</svg>
