<svg width="16" height="44" viewBox="0 0 16 44" fill="none" xmlns="http://www.w3.org/2000/svg">
<path d="M3.83545 28.7735C4.75579 20.7638 6.12579 3.77724 10.7569 0.531297C13.2322 -0.0531402 12.4253 28.5465 12.4085 29.009C12.4085 29.0216 12.4085 29.0216 12.4085 29.009C12.4253 29.194 12.4463 29.3832 12.4757 29.5682C11.4209 28.8996 10.0215 28.3951 8.18921 28.3236C6.34853 28.2479 4.9365 28.4329 3.83545 28.7735Z" fill="#7987a1" />
<path d="M13.3669 41.5932C8.66854 46.2351 2.92372 42.4342 0.591342 40.0333C-0.724038 36.2366 2.95734 33.4363 3.74321 29.5849C3.77263 29.3285 3.80626 29.0552 3.83988 28.7735C4.94094 28.4329 6.34876 28.2521 8.19366 28.3236C10.0259 28.395 11.4254 28.9038 12.4802 29.5681C13.2282 34.189 18.2628 38.1245 13.3669 41.5932Z" fill="#7987a1" />
<path opacity="0.1" d="M3.90736 35.5807C4.05024 35.2906 4.15949 35.0551 4.23514 34.8617C4.42425 34.395 4.4999 34.4371 4.50831 34.7987C4.51671 35.1603 4.4915 35.6438 4.34861 36.1357C4.10487 36.964 3.6426 40.0628 4.6638 42.9219C4.3318 42.7706 4.01242 42.6066 3.70144 42.43C2.99963 38.7762 3.44929 36.4931 3.90736 35.5807Z" fill="#7987a1" />
<path opacity="0.1" d="M11.804 36.3376C11.7536 35.976 11.8629 35.7741 12.0226 36.1357C12.1066 36.3207 12.1907 36.5982 12.2621 37.0145C12.4302 37.9942 12.8421 40.5926 11.989 42.7075C11.5813 42.9682 11.1695 43.1742 10.7534 43.3382C12.2831 41.2821 11.989 37.7209 11.804 36.3376Z" fill="#7987a1" />
</svg>
