<svg width="16" height="44" viewBox="0 0 16 44" fill="none" xmlns="http://www.w3.org/2000/svg">
<path d="M6.13323 23.538C8.4698 23.3193 10.2979 24.2612 12.1134 25.9934C11.5544 23.4286 11.6595 7.58157 7.1082 1.55219C6.14584 0.383315 4.78423 -0.558513 4.88509 1.80867C5.47764 4.29778 4.3934 14.1744 2.45605 26.0103C3.3722 24.7699 4.60352 23.6809 6.13323 23.538Z" fill="#6571ff" />
<path d="M15.0386 37.0644C15.9337 32.3468 12.5633 29.4289 12.1557 26.1661C12.1389 26.1199 12.1263 26.061 12.1137 25.9979C10.2982 24.2656 8.4701 23.3238 6.13352 23.5424C4.60382 23.6854 3.37249 24.7744 2.45635 26.0147C1.99828 28.8234 1.48979 31.7414 0.943471 34.6972C-0.0903388 39.6376 9.91575 49.3292 15.0386 37.0644Z" fill="#6571ff" />
<path opacity="0.1" d="M10.9579 31.2702C10.8528 30.8497 10.752 30.8371 10.7226 31.2449C10.6847 31.842 10.6595 32.7376 10.7814 33.5028C10.9831 34.7474 12.1598 39.4018 12.1388 41.4915C12.4077 41.2519 12.6725 40.9786 12.9288 40.6716C12.5548 38.0227 12.0505 35.0165 11.6807 33.8812C11.4244 33.0739 11.1344 31.9765 10.9579 31.2702Z" fill="#6571ff" />
<path opacity="0.1" d="M4.71352 36.0002C4.83959 35.0416 4.61686 33.6498 4.42354 32.7122C4.30167 32.1236 4.205 32.1572 4.21761 32.7711C4.23862 33.9189 4.25964 35.668 4.1924 36.2777C4.12095 36.9294 3.98227 39.4017 4.02009 41.2265C4.35209 41.504 4.6967 41.7605 5.06232 41.9833V41.8992C4.57483 40.2006 4.50339 37.5601 4.71352 36.0002Z" fill="#6571ff" />
</svg>
