<svg width="16" height="41" viewBox="0 0 16 41" fill="none" xmlns="http://www.w3.org/2000/svg">
<path d="M13.5168 15.7574C13.584 15.4547 13.647 15.1814 13.7143 14.9333C18.1941 8.0588 15.5466 2.3826 9.8564 0.898382C9.1714 0.721789 8.11236 1.02873 7.78877 1.1843C2.96012 3.52625 -0.271593 2.48771 1.18667 7.89481C2.49364 10.5521 3.39718 13.1043 4.02755 15.5429C4.93949 15.9802 6.19603 16.3965 7.88963 16.6193C10.491 16.9599 12.2308 16.4722 13.5168 15.7574Z" fill="#6571ff" fill-opacity="0.5"/>
<path opacity="0.1" d="M6.68652 12.6459C7.20763 12.4314 6.42597 7.819 6.68652 5.43921C6.8252 4.18624 6.97649 2.66418 7.08575 1.49951C5.61909 2.13861 4.32472 2.496 3.29932 2.866C3.90027 3.71112 4.60209 5.02296 5.02234 6.90661C5.85443 10.6613 6.16541 12.8645 6.68652 12.6459Z" fill="#6571ff" fill-opacity="0.5"/>
<path d="M13.5163 15.7572C12.2304 16.472 10.4906 16.9597 7.88503 16.615C6.19143 16.3921 4.93909 15.9759 4.02295 15.5386C6.68732 25.8945 4.35915 34.3079 6.46039 40.8796C10.5494 38.3569 12.1674 21.8749 13.5163 15.7572Z" fill="#6571ff" fill-opacity="0.5"/>
<path opacity="0.1" d="M12.2211 5.54023C12.0824 7.06649 12.3934 6.54512 12.6708 5.54023C12.8305 4.9684 13.1541 3.74066 13.4483 2.71474C12.9271 2.26906 12.3304 1.88224 11.6748 1.56689C11.9228 2.59281 12.3178 4.47226 12.2211 5.54023Z" fill="#6571ff" fill-opacity="0.5"/>
</svg>
