<svg class="ll1" width="13" height="48" viewBox="0 0 13 48" fill="none" xmlns="http://www.w3.org/2000/svg">
<path  d="M6.14636 22.6674C3.98628 22.3941 2.98189 20.9393 2.10777 19.2659C2.02372 18.3493 1.90606 17.6429 1.74636 17.214C-0.539783 0.626923 -1.69547 0.820337 6.70949 0.904429C12.6728 0.240104 12.2399 1.8883 12.1853 6.37459C10.8783 12.3661 10.0336 17.2098 9.49152 21.2294C8.61321 22.1292 7.48274 22.8398 6.14636 22.6674Z" fill="#7987a1"/>
<path  opacity="0.1" d="M4.20934 3.20029C4.46989 5.06712 4.94057 7.41327 4.49931 8.45181C4.05385 9.49454 4.15892 6.55554 3.89836 4.92416C3.66303 3.44835 3.30162 2.41403 3.50333 0.917194C3.7933 0.90458 4.10429 0.896172 4.44048 0.891968C4.24297 1.44697 4.07486 2.24164 4.20934 3.20029Z" fill="#7987a1"/>
<path  opacity="0.1" d="M10.61 4.10885C10.6604 6.84184 10.4461 6.68207 10.3494 5.87899C10.2192 4.78159 10.2864 4.06681 10.009 2.72555C9.84934 1.96452 9.42487 1.33383 9.56355 0.787231C9.94599 0.816664 10.2738 0.871323 10.5554 0.95121C10.5512 1.53144 10.5764 2.4144 10.61 4.10885Z" fill="#7987a1"/>
<path  d="M2.1084 19.2665C2.98251 20.9399 3.98691 22.3905 6.14699 22.668C7.48337 22.8362 8.61383 22.1298 9.48795 21.23C7.45395 36.3077 9.64765 39.6924 7.27325 47.8829C1.63772 46.5206 2.78079 26.4353 2.1084 19.2665Z" fill="#7987a1"/>
</svg>
