<svg width="16" height="41" viewBox="0 0 16 41" fill="none" xmlns="http://www.w3.org/2000/svg">
<path d="M2.61635 15.7574C2.54911 15.4547 2.48608 15.1814 2.41884 14.9333C-2.061 8.0588 0.586558 2.3826 6.27672 0.898382C6.96172 0.721789 8.02074 1.02873 8.34433 1.1843C13.173 3.52625 16.4047 2.48771 14.9464 7.89481C13.6395 10.5521 12.7359 13.1043 12.1056 15.5429C11.1936 15.9802 9.93708 16.3965 8.24348 16.6193C5.64214 16.9599 3.90231 16.4722 2.61635 15.7574Z" fill="#7987a1" />
<path opacity="0.1" d="M9.44465 12.6459C8.92354 12.4314 9.7052 7.819 9.44465 5.43921C9.30597 4.18624 9.15467 2.66418 9.04541 1.49951C10.5121 2.13861 11.8064 2.496 12.8318 2.866C12.2309 3.71112 11.5291 5.02296 11.1088 6.90661C10.2768 10.6613 9.96576 12.8645 9.44465 12.6459Z" fill="#7987a1" />
<path d="M2.61572 15.7572C3.90168 16.472 5.64151 16.9597 8.24704 16.615C9.94064 16.3921 11.193 15.9759 12.1091 15.5386C9.44475 25.8945 11.7729 34.3079 9.67168 40.8796C5.58268 38.3569 3.96472 21.8749 2.61572 15.7572Z" fill="#7987a1" />
<path opacity="0.1" d="M3.91169 5.54023C4.05037 7.06649 3.73939 6.54512 3.46202 5.54023C3.30233 4.9684 2.97874 3.74066 2.68457 2.71474C3.20568 2.26906 3.80242 1.88224 4.45801 1.56689C4.21006 2.59281 3.81503 4.47226 3.91169 5.54023Z" fill="#7987a1" />
</svg>
