<svg width="18" height="35" viewBox="0 0 18 35" fill="none" xmlns="http://www.w3.org/2000/svg">
<path d="M2.96545 12.1102C2.44014 9.83553 1.22142 7.96449 0.998694 5.28617C0.910442 1.09841 4.43631 -1.14264 7.77308 1.83C21.8976 -1.28559 16.6361 6.598 14.5517 12.3919C12.358 11.9715 8.73965 11.6813 2.96545 12.1102Z" fill="#6571ff" fill-opacity="0.5"/>
<path d="M14.094 16.5754C16.1112 22.7772 20.3641 39.9697 15.1404 31.0224C12.9635 26.246 12.0936 19.6406 9.55112 17.3659C6.00001 15.642 7.84072 27.9909 7.75247 30.8374C8.94177 37.9221 5.05866 34.323 3.70126 28.8402C2.41529 23.8241 3.37767 17.8746 3.20537 14.3133C3.21797 13.5229 3.12552 12.7997 2.96582 12.1143C8.74004 11.6855 12.3584 11.9756 14.5563 12.3918C13.9553 14.0653 13.6191 15.5663 14.094 16.5754Z" fill="#6571ff" fill-opacity="0.5"/>
<path opacity="0.5" d="M6.89067 16.4114C7.6177 15.4233 9.70216 16.6216 11.0554 18.3371C12.4086 20.0526 13.7113 26.3048 14.4888 29.1681C14.9427 30.8373 16.2665 32.4687 17.2877 33.5451C16.9179 33.6334 16.2412 32.9102 15.1402 31.0266C12.9633 26.2501 12.0934 19.6447 9.55086 17.37C5.99975 15.6462 7.84045 27.995 7.7522 30.8416C8.23129 33.6923 7.88667 34.8149 7.21848 34.777C6.19307 32.6832 6.26871 30.337 5.90309 27.6587C5.48705 24.6356 6.16364 17.3995 6.89067 16.4114Z" fill="#6571ff" fill-opacity="0.5"/>
<path opacity="0.1" d="M15.1655 1.95178C15.5563 2.70861 15.6866 2.92304 15.4513 5.16409C15.3924 5.71489 15.3714 5.71069 15.1991 5.7149C14.8881 5.7191 15.2621 5.07159 14.9806 4.28113C14.6444 3.32248 13.6316 1.97281 12.0136 1.85928C9.8031 1.70371 8.89116 2.22509 8.63061 3.13328C8.37005 4.04567 8.03386 4.69318 8.4499 5.47523C8.86595 6.25729 9.51734 7.35048 8.37005 7.40094C7.22697 7.45139 5.92422 7.55651 6.39069 6.82911C6.85717 6.10172 7.32784 6.25728 7.53376 5.05898C7.74389 3.86067 8.34064 2.97771 7.4287 2.24611C7.02106 1.91815 6.74368 1.64906 6.47472 1.43042C6.28981 1.28326 5.60901 0.795524 4.89879 0.787115C4.13814 0.778706 3.70948 0.757683 2.82275 1.0436C3.907 0.299383 5.34847 0.232108 6.82774 1.12769V1.13189C6.97903 1.22018 7.12613 1.3211 7.27742 1.43042C7.29843 1.44303 7.31524 1.45985 7.33626 1.47246C7.39509 1.51451 7.44971 1.55655 7.50855 1.6028C7.5968 1.67428 7.68505 1.74576 7.77331 1.82565C7.97082 1.7836 8.15993 1.74155 8.34905 1.70371C8.39948 1.6953 8.4499 1.68269 8.50033 1.67428C8.66843 1.64065 8.83232 1.60701 8.99622 1.57757C9.01723 1.57337 9.03825 1.56917 9.05506 1.56496C9.22737 1.53132 9.39968 1.50189 9.56778 1.47246C9.61821 1.46405 9.67284 1.45564 9.72327 1.44723C9.85355 1.42621 9.98382 1.40519 10.1141 1.38417C10.1519 1.37996 10.1939 1.37155 10.2318 1.36734C10.383 1.34632 10.5301 1.3253 10.673 1.30428C10.7318 1.29587 10.7865 1.28746 10.8411 1.28325C10.942 1.27064 11.0387 1.25803 11.1395 1.24541C11.1941 1.24121 11.2488 1.2328 11.2992 1.22859C11.4253 1.21598 11.5513 1.20337 11.6774 1.19075C11.7405 1.18655 11.7993 1.18235 11.8623 1.17394C11.938 1.16973 12.0094 1.16132 12.0809 1.15711C12.1439 1.15291 12.2069 1.14871 12.2658 1.1445C12.375 1.1403 12.4801 1.13189 12.5852 1.13189C12.6482 1.12768 12.7112 1.12769 12.7743 1.12769C12.8289 1.12769 12.8835 1.12768 12.9382 1.12348C13.0012 1.12348 13.0642 1.12348 13.1273 1.12348C13.2197 1.12348 13.308 1.12348 13.392 1.12769C13.3962 1.12769 13.3963 1.12769 13.4005 1.12769C13.5013 1.1361 14.9259 1.48507 15.1655 1.95178Z" fill="#6571ff" fill-opacity="0.5"/>
</svg>
