<svg width="18" height="33" viewBox="0 0 18 33" fill="none" xmlns="http://www.w3.org/2000/svg">
<path d="M8.36819 19.9101C11.7596 20.2927 14.218 20.6207 15.9831 21.2976C15.7772 19.5611 15.9621 16.9374 17.0715 12.119C17.4581 9.85271 17.3279 8.84781 16.7017 7.38882C15.0333 5.04266 9.37258 -6.76802 12.3059 6.13165C12.6337 7.63268 11.9151 7.95223 11.5537 7.26688C11.083 3.40707 9.20028 -4.51437 6.10306 4.59277C5.60716 4.30686 5.48109 -2.10093 3.10249 2.07422C1.67364 7.04825 5.63658 12.2157 4.37163 17.7111C4.61117 18.4006 4.3128 19.271 3.8001 20.2422C4.9852 19.8891 6.50229 19.6998 8.36819 19.9101Z" fill="#6571ff" />
<path d="M1.16041 28.1764C3.65669 32.053 4.65268 31.2373 8.7543 30.4553C12.7172 30.2072 15.8859 36.0978 17.8905 28.6893C17.7812 24.6277 16.3314 24.1988 15.9826 21.2935C14.2175 20.6207 11.7591 20.2886 8.36767 19.9059C6.50597 19.6957 4.98467 19.8849 3.79117 20.2297C2.4884 22.6936 -0.184379 25.7882 1.16041 28.1764Z" fill="#6571ff" />
<path opacity="0.1" d="M9.54949 26.4689C10.1757 24.766 13.3653 24.8712 13.9915 24.8712C14.6177 24.8712 15.2733 25.0814 14.8236 24.6988C14.3739 24.3161 11.6339 24.211 10.764 24.6651C9.8983 25.115 9.04099 25.3168 8.51148 24.6651C7.57013 23.5047 6.30098 23.2356 5.80929 23.1977C5.68321 23.1893 5.59076 23.2986 5.59916 23.3365C5.63278 23.4626 5.77146 23.5173 5.77146 23.5173C5.77146 23.5173 8.08703 23.9335 8.29715 25.8088C8.50728 27.684 8.67117 28.6048 8.35599 29.4457C8.21731 29.8157 7.94835 30.3035 7.47347 30.7155C7.8643 30.6314 8.28875 30.5431 8.75102 30.4548C9.19228 30.4254 9.62093 30.4759 10.0412 30.5726C9.0536 29.2187 8.96535 28.054 9.54949 26.4689Z" fill="#6571ff" />
<path opacity="0.5" d="M5.79864 5.74942C6.97953 8.10819 9.64811 11.7199 9.71955 13.1074C9.79099 14.495 9.68173 16.0254 10.0305 15.9918C10.3793 15.9539 10.4466 13.5952 11.3165 13.0065C12.1822 12.4179 13.0731 10.2904 12.3503 7.15375V7.14955C12.2326 7.72978 11.804 7.7508 11.5476 7.26727C11.077 3.40746 9.19424 -4.51398 6.09701 4.59316C5.86167 4.45861 5.71039 2.96178 5.36578 1.85597C5.17247 2.58337 4.96234 4.0802 5.79864 5.74942Z" fill="#6571ff" />
</svg>
