<svg width="16" height="44" viewBox="0 0 16 44" fill="none" xmlns="http://www.w3.org/2000/svg">
<path d="M10.0007 23.538C7.66407 23.3193 5.83598 24.2612 4.02051 25.9934C4.57944 23.4286 4.47439 7.58157 9.02568 1.55219C9.98804 0.383315 11.3496 -0.558513 11.253 1.80867C10.6604 4.29778 11.7447 14.1744 13.682 26.0103C12.7617 24.7699 11.5304 23.6809 10.0007 23.538Z" fill="#7987a1" />
<path d="M1.09542 37.0639C0.200293 32.3464 3.57068 29.4284 3.97832 26.1656C3.99513 26.1194 4.00773 26.0605 4.02034 25.9974C5.83581 24.2651 7.66391 23.3233 10.0005 23.542C11.5302 23.6849 12.7615 24.7739 13.6777 26.0143C14.1357 28.8229 14.6442 31.7409 15.1906 34.6967C16.2244 39.6371 6.21826 49.3287 1.09542 37.0639Z" fill="#7987a1" />
<path opacity="0.1" d="M5.17506 31.2702C5.28012 30.8497 5.38098 30.8371 5.41039 31.2449C5.44822 31.842 5.47345 32.7376 5.35158 33.5028C5.14986 34.7474 3.97315 39.4018 3.99417 41.4915C3.72521 41.2519 3.46045 40.9786 3.2041 40.6716C3.57812 38.0227 4.08243 35.0165 4.45225 33.8812C4.7086 33.0739 4.99855 31.9765 5.17506 31.2702Z" fill="#7987a1" />
<path opacity="0.1" d="M11.4206 36.0002C11.2945 35.0416 11.5172 33.6498 11.7106 32.7122C11.8324 32.1236 11.9291 32.1572 11.9165 32.7711C11.8955 33.9189 11.8745 35.668 11.9417 36.2777C12.0132 36.9294 12.1518 39.4017 12.114 41.2265C11.782 41.504 11.4374 41.7605 11.0718 41.9833V41.8992C11.5593 40.2006 11.6307 37.5601 11.4206 36.0002Z" fill="#7987a1" />
</svg>
