<svg width="18" height="33" viewBox="0 0 18 33" fill="none" xmlns="http://www.w3.org/2000/svg">
<path d="M8.02583 19.4516C5.24799 20.4943 4.1091 21.0535 2.20117 20.7256C2.66765 18.5686 2.9198 15.9954 2.39029 12.8714C1.60863 3.55404 5.94139 -3.12284 6.36164 3.78109C7.61398 2.31369 9.31597 -1.28123 10.3162 3.78109C10.3162 3.78109 10.5767 2.84346 11.1483 3.73063C11.0306 -0.9743 13.8967 1.71664 14.6783 4.86167C14.9683 6.69907 14.6321 9.24284 14.7792 12.0936C14.4766 17.1769 14.9599 19.2666 15.6029 20.6919C14.9179 20.5826 14.2371 20.3976 13.7832 20.0697C12.5393 19.1741 11.3584 18.2028 8.02583 19.4516Z" fill="#6571ff" fill-opacity="0.5"/>
<path d="M10.3361 29.9043C8.53324 30.6022 7.54145 32.755 4.62913 31.7879C-1.70821 29.2358 0.972957 26.4103 2.20008 20.7299C4.11221 21.0578 5.2469 20.4986 8.02474 19.4559C11.3573 18.2071 12.534 19.1784 13.7821 20.074C14.236 20.3977 14.9168 20.5869 15.6018 20.6962C16.2154 22.0543 16.976 22.8154 17.3374 25.0017C17.7745 31.0395 13.8494 30.5854 10.3361 29.9043Z" fill="#6571ff" fill-opacity="0.5"/>
<path opacity="0.1" d="M9.89863 27.1334C9.80618 24.9302 7.99912 24.2112 6.81401 23.9757C6.23407 23.858 6.41477 23.7697 6.70475 23.7613C8.6505 23.694 10.071 24.5728 10.071 24.5728C10.8106 23.8033 11.525 23.6646 12.0125 23.694C12.4159 23.7193 12.4538 23.8496 12.147 23.8958C11.4368 24.0094 10.2558 24.4466 10.2096 26.1159C10.1676 27.5791 10.4618 29.1936 11.6847 30.1397C11.235 30.0724 10.7812 29.9883 10.3357 29.9042C10.0457 30.0177 9.77678 30.1649 9.52042 30.3331C9.83141 29.5216 9.95747 28.4704 9.89863 27.1334Z" fill="#6571ff" fill-opacity="0.5"/>
<path opacity="0.5" d="M11.7862 2.13305C11.4626 3.90318 11.4248 7.40981 10.9415 8.48618C10.454 9.56256 10.3154 11.2991 10.5255 12.3039C10.7356 13.3088 10.8743 16.4329 10.2145 16.4707C9.55471 16.5043 8.13426 15.613 8.58392 13.5779C9.03359 11.5429 10.1094 9.04539 10.1809 7.09867C10.2355 5.61025 10.3112 4.63478 10.2776 3.58784C10.2902 3.65091 10.3028 3.71818 10.3196 3.78546C10.3196 3.78546 10.5801 2.84783 11.1517 3.735C11.097 1.47293 11.7316 0.922133 12.4881 1.30895C12.1351 1.43089 11.8703 1.68316 11.7862 2.13305Z" fill="#6571ff" fill-opacity="0.5"/>
<path opacity="0.5" d="M7.30184 4.42811C7.54139 7.37132 7.47835 7.51007 7.30184 7.59836C7.12533 7.68666 6.52015 6.12255 6.42349 5.32368C6.32683 4.52481 5.91078 4.35242 5.97802 2.99855C5.99483 2.64957 6.05368 2.36786 6.12512 2.11558C6.23439 2.54445 6.31423 3.09525 6.35626 3.7806C6.77652 3.28866 7.24721 2.55707 7.7263 1.99365C7.42792 2.60332 7.21779 3.40639 7.30184 4.42811Z" fill="#6571ff" fill-opacity="0.5"/>
</svg>
