<svg width="18" height="30" viewBox="0 0 18 30" fill="none" xmlns="http://www.w3.org/2000/svg">
<path d="M2.12535 19.5012C2.21781 19.0976 2.26822 18.6897 2.2346 18.2735C0.217405 7.69896 5.55037 -3.23297 10.5009 2.16572C13.8209 -1.92534 13.3796 3.83494 13.8587 6.37451C14.8757 9.71295 16.0146 15.3177 15.9683 18.2525C15.9893 18.2819 16.0103 18.3113 16.0313 18.345C15.0858 18.7612 13.9932 19.148 13.0182 19.2616C10.9085 19.5096 5.03767 20.0352 2.12535 19.5012Z" fill="#6571ff" fill-opacity="0.5"/>
<path opacity="0.5" d="M10.4504 9.86873C10.5218 11.3614 11.3875 15.2506 9.82416 16.1167C8.26505 16.9829 5.93689 14.6241 5.41998 11.8112C4.89888 8.99838 5.93269 4.56254 7.31951 2.599C7.37414 2.51911 7.43717 2.44763 7.50021 2.38036C7.50021 2.38036 8.04232 1.37546 7.09677 0.837276C8.18941 0.542955 9.35351 0.917163 10.5008 2.16593C10.547 2.10706 10.5932 2.05661 10.6353 2.00195L10.6394 2.00615C10.7151 1.91365 10.7865 1.82535 10.858 1.74547C11.1522 1.42171 11.4127 1.18205 11.6438 1.01807C11.5178 1.16944 11.4043 1.35024 11.3119 1.57308C10.4167 3.72583 10.3831 8.3761 10.4504 9.86873Z" fill="#6571ff" fill-opacity="0.5"/>
<path d="M9.9961 27.9482C5.37756 30.3784 4.4614 30.4079 2.02816 27.4478C-0.476532 24.122 1.59111 21.8347 2.12483 19.5054C5.03716 20.0394 10.908 19.5138 13.0135 19.2657C13.9885 19.1522 15.0769 18.7654 16.0267 18.3491C20.204 24.2902 17.1319 31.11 9.9961 27.9482Z" fill="#6571ff" fill-opacity="0.5"/>
<path opacity="0.1" d="M7.08375 28.9614C8.53361 28.1835 9.58003 25.829 9.6851 25.7533C10.4121 25.2319 11.6266 26.8969 12.2192 28.0111C12.3957 28.3391 12.7907 28.5788 13.2614 28.7469C12.6184 28.7385 11.9166 28.6208 11.1602 28.3853C10.7862 28.2676 10.3995 28.1247 9.99608 27.9481C8.63447 28.6671 7.59646 29.1716 6.74335 29.4533C6.67191 29.3019 6.75175 29.138 7.08375 28.9614Z" fill="#6571ff" fill-opacity="0.5"/>
</svg>
