<svg width="18" height="33" viewBox="0 0 18 33" fill="none" xmlns="http://www.w3.org/2000/svg">
<path d="M10.1064 19.4516C12.8842 20.4943 14.0231 21.0535 15.931 20.7256C15.4645 18.5686 15.2124 15.9954 15.7419 12.8714C16.5236 3.55404 12.1908 -3.12284 11.7706 3.78109C10.5182 2.31369 8.81621 -1.28123 7.81602 3.78109C7.81602 3.78109 7.55546 2.84346 6.98393 3.73063C7.10159 -0.9743 4.2355 1.71664 3.45384 4.86167C3.16387 6.69907 3.50007 9.24284 3.35298 12.0936C3.65556 17.1769 3.17228 19.2666 2.5293 20.6919C3.2143 20.5826 3.8951 20.3976 4.34897 20.0697C5.5929 19.1741 6.7738 18.2028 10.1064 19.4516Z" fill="#6571ff" fill-opacity="0.5"/>
<path d="M7.79652 29.9043C9.59938 30.6022 10.5912 32.755 13.5035 31.7879C19.8408 29.2358 17.1596 26.4103 15.9325 20.7299C14.0204 21.0578 12.8857 20.4986 10.1079 19.4559C6.77532 18.2071 5.59862 19.1784 4.35049 20.074C3.89662 20.3977 3.21582 20.5869 2.53081 20.6962C1.91725 22.0543 1.1566 22.8154 0.795188 25.0017C0.35813 31.0395 4.28325 30.5854 7.79652 29.9043Z" fill="#6571ff" fill-opacity="0.5"/>
<path opacity="0.1" d="M8.23357 27.1334C8.32602 24.9302 10.1331 24.2112 11.3182 23.9757C11.8981 23.858 11.7174 23.7697 11.4275 23.7613C9.4817 23.694 8.06127 24.5728 8.06127 24.5728C7.32163 23.8033 6.60721 23.6646 6.11972 23.694C5.71628 23.7193 5.67846 23.8496 5.98524 23.8958C6.69546 24.0094 7.87636 24.4466 7.92259 26.1159C7.96461 27.5791 7.67044 29.1936 6.44751 30.1397C6.89718 30.0724 7.35105 29.9883 7.79651 29.9042C8.08648 30.0177 8.35544 30.1649 8.61179 30.3331C8.30081 29.5216 8.17473 28.4704 8.23357 27.1334Z" fill="#6571ff" fill-opacity="0.5"/>
<path opacity="0.5" d="M6.34732 2.13305C6.67092 3.90318 6.70874 7.40981 7.19202 8.48618C7.67951 9.56256 7.81819 11.2991 7.60807 12.3039C7.39794 13.3088 7.25926 16.4329 7.91905 16.4707C8.57884 16.5043 9.99928 15.613 9.54961 13.5779C9.09995 11.5429 8.02411 9.04539 7.95267 7.09867C7.89804 5.61025 7.82239 4.63478 7.85601 3.58784C7.84341 3.65091 7.8308 3.71818 7.81399 3.78546C7.81399 3.78546 7.55343 2.84783 6.9819 3.735C7.03653 1.47293 6.40195 0.922133 5.64551 1.30895C5.99852 1.43089 6.26327 1.68316 6.34732 2.13305Z" fill="#6571ff" fill-opacity="0.5"/>
<path opacity="0.5" d="M10.8307 4.42811C10.5912 7.37132 10.6542 7.51007 10.8307 7.59836C11.0072 7.68666 11.6124 6.12255 11.709 5.32368C11.8057 4.52481 12.2217 4.35242 12.1545 2.99855C12.1377 2.64957 12.0788 2.36786 12.0074 2.11558C11.8981 2.54445 11.8183 3.09525 11.7763 3.7806C11.356 3.28866 10.8853 2.55707 10.4062 1.99365C10.7046 2.60332 10.9148 3.40639 10.8307 4.42811Z" fill="#6571ff" fill-opacity="0.5"/>
</svg>
