<svg width="16" height="39" viewBox="0 0 16 39" fill="none" xmlns="http://www.w3.org/2000/svg">
<path d="M2.14209 23.9167C2.41105 22.8193 2.66319 21.7555 2.82289 20.7254C3.16329 12.7829 6.89929 -0.776858 8.07178 1.08577C8.89546 1.43055 9.74857 3.68421 9.67713 6.34571C9.64351 13.2244 11.5388 18.5558 13.1988 22.9833C11.6649 21.9027 9.57206 20.8053 7.41199 20.8053C5.57971 20.8011 3.6928 22.2601 2.14209 23.9167Z" fill="#7987a1" />
<path d="M14.6737 35.6853C14.4678 39.1751 2.98238 38.515 2.18811 36.274C0.0280366 32.0946 1.18792 27.8227 2.14609 23.9125C3.6968 22.2559 5.57952 20.7969 7.416 20.7969C9.57188 20.7969 11.6647 21.8985 13.2028 22.9749C15.1234 28.1044 16.7329 32.0105 14.6737 35.6853Z" fill="#7987a1" />
<path opacity="0.1" d="M10.5896 28.8404C11.0224 29.9841 12.4933 34.0289 13.0186 37.464C12.4975 37.6784 11.8797 37.834 11.2074 37.9433C11.7201 34.1003 10.8333 30.0135 10.5476 28.8488C10.4971 28.6386 10.5098 28.6344 10.5896 28.8404Z" fill="#7987a1" />
<path opacity="0.1" d="M5.35588 30.3073C5.33487 31.4173 5.28865 35.1467 5.58282 37.8713C5.2088 37.804 4.84738 37.7284 4.51539 37.6401C4.40613 34.1502 5.0449 31.2407 5.28024 30.303C5.33067 30.0928 5.36008 30.097 5.35588 30.3073Z" fill="#7987a1" />
</svg>
