<svg width="16" height="39" viewBox="0 0 16 39" fill="none" xmlns="http://www.w3.org/2000/svg">
<path d="M13.9884 23.9167C13.7194 22.8193 13.4673 21.7555 13.3076 20.7254C12.9672 12.7829 9.23116 -0.776858 8.05867 1.08577C7.23499 1.43055 6.38188 3.68421 6.45332 6.34571C6.48694 13.2244 4.59162 18.5558 2.93164 22.9833C4.46555 21.9027 6.55838 20.8053 8.71845 20.8053C10.5549 20.8011 12.4419 22.2601 13.9884 23.9167Z" fill="#7987a1" />
<path d="M1.46071 35.6853C1.66663 39.1751 13.152 38.515 13.9463 36.274C16.1064 32.0946 14.9465 27.8227 13.9883 23.9125C12.4376 22.2559 10.5549 20.7969 8.71839 20.7969C6.56252 20.7969 4.46969 21.8985 2.93158 22.9749C1.01104 28.1044 -0.598506 32.0105 1.46071 35.6853Z" fill="#7987a1" />
<path opacity="0.1" d="M5.54622 28.8399C5.11337 29.9836 3.6425 34.0284 3.11719 37.4635C3.6383 37.678 4.25606 37.8335 4.92846 37.9428C4.41575 34.0999 5.30248 30.013 5.58825 28.8483C5.63868 28.6381 5.62607 28.6339 5.54622 28.8399Z" fill="#7987a1" />
<path opacity="0.1" d="M10.7777 30.3073C10.7987 31.4173 10.845 35.1467 10.5508 37.8713C10.9248 37.804 11.2862 37.7284 11.6182 37.6401C11.7275 34.1502 11.0887 31.2407 10.8534 30.303C10.7987 30.0928 10.7735 30.097 10.7777 30.3073Z" fill="#7987a1" />
</svg>
