<svg width="18" height="30" viewBox="0 0 18 30" fill="none" xmlns="http://www.w3.org/2000/svg">
<path d="M16.0086 19.5012C15.9161 19.0976 15.8657 18.6897 15.8993 18.2735C17.9165 7.69896 12.5835 -3.23297 7.633 2.16572C4.31304 -1.92534 4.7543 3.83494 4.27522 6.37451C3.25822 9.71295 2.11935 15.3177 2.16558 18.2525C2.14456 18.2819 2.12355 18.3113 2.10254 18.345C3.0481 18.7612 4.14074 19.148 5.11572 19.2616C7.22536 19.5096 13.0962 20.0352 16.0086 19.5012Z" fill="#6571ff" fill-opacity="0.5"/>
<path opacity="0.5" d="M7.68276 9.86873C7.61132 11.3614 6.74561 15.2506 8.30893 16.1167C9.87225 16.9829 12.1962 14.6241 12.7131 11.8112C13.2342 8.99838 12.2004 4.56254 10.8136 2.599C10.759 2.51911 10.6959 2.44763 10.6329 2.38036C10.6329 2.38036 10.0908 1.37546 11.0363 0.837276C9.9437 0.542955 8.77961 0.917163 7.63233 2.16593C7.5861 2.10706 7.53988 2.05661 7.49785 2.00195L7.49365 2.00615C7.41801 1.91365 7.34656 1.82535 7.27512 1.74547C6.98095 1.42171 6.72039 1.18205 6.48926 1.01807C6.61533 1.16944 6.7288 1.35024 6.82125 1.57308C7.71638 3.72583 7.75 8.3761 7.68276 9.86873Z" fill="#6571ff" fill-opacity="0.5"/>
<path d="M8.13618 27.9482C12.7547 30.3784 13.6709 30.4079 16.1041 27.4478C18.6088 24.122 16.5411 21.8347 16.0074 19.5054C13.0951 20.0394 7.22425 19.5138 5.1188 19.2657C4.14383 19.1522 3.05538 18.7654 2.10562 18.3491C-2.07164 24.2902 1.00037 31.11 8.13618 27.9482Z" fill="#6571ff" fill-opacity="0.5"/>
<path opacity="0.1" d="M11.0487 28.9614C9.59889 28.1835 8.55247 25.829 8.44741 25.7533C7.72038 25.2319 6.50586 26.8969 5.91331 28.0111C5.73681 28.3391 5.34177 28.5788 4.87109 28.7469C5.51407 28.7385 6.21589 28.6208 6.97233 28.3853C7.34636 28.2676 7.73298 28.1247 8.13642 27.9481C9.49803 28.6671 10.536 29.1716 11.3891 29.4533C11.4606 29.3019 11.3807 29.138 11.0487 28.9614Z" fill="#6571ff" fill-opacity="0.5"/>
</svg>
