<svg width="15" height="42" viewBox="0 0 15 42" fill="none" xmlns="http://www.w3.org/2000/svg">
<path d="M11.2806 25.2521C9.93164 19.908 10.604 0.125448 3.60272 0.894887C2.63195 2.7407 5.37196 2.7407 4.27091 20.236C4.46002 22.0902 3.96412 23.915 3.25391 25.7272C5.13662 24.4364 7.83461 23.6291 11.2806 25.2521Z" fill="#6571ff" fill-opacity="0.5"/>
<path d="M1.11074 38.8161C1.79994 41.3472 7.46911 41.0361 11.6128 41.0151C15.7648 40.6198 13.6594 31.1301 11.638 26.2191C11.5035 25.9963 11.39 25.6641 11.285 25.2563C7.83892 23.6333 5.13672 24.4406 3.25401 25.7314C1.52679 30.1378 -1.46539 34.4559 1.11074 38.8161Z" fill="#6571ff" fill-opacity="0.5"/>
<path opacity="0.1" d="M10.9406 34.048C11.2012 31.5211 10.4195 28.7124 10.4195 28.7124C10.4195 28.7124 10.6296 31.8574 10.4195 33.1482C10.2304 34.3297 9.77654 38.1895 10.4195 41.0234C10.8272 41.0192 11.2264 41.015 11.6088 41.0108C11.6172 41.0108 11.6256 41.0066 11.634 41.0066C11.281 39.7242 10.7137 36.2596 10.9406 34.048Z" fill="#6571ff" fill-opacity="0.5"/>
<path opacity="0.1" d="M4.12375 33.001C4.12375 33.001 3.77494 35.0822 3.79175 37.0122C3.80016 38.0885 3.55642 39.5097 3.33789 40.5524C3.63627 40.6365 3.95565 40.7038 4.29185 40.7626C4.39271 40.2707 4.48517 39.6821 4.5356 39.0051C4.7121 36.7809 4.12375 33.001 4.12375 33.001Z" fill="#6571ff" fill-opacity="0.5"/>
</svg>
